<svg width="56" height="56" viewBox="0 0 56 56" fill="none" xmlns="http://www.w3.org/2000/svg">
<path d="M25.669 23.3333H30.3357V35H25.669V23.3333ZM25.6667 37.3333H30.3333V42H25.6667V37.3333Z" fill="#ED254E"/>
<path d="M32.1254 9.79999C31.3134 8.27166 29.7314 7.32199 28 7.32199C26.2687 7.32199 24.6867 8.27166 23.8747 9.80233L6.75269 42.1493C6.37275 42.8597 6.18454 43.6568 6.20664 44.462C6.22873 45.2673 6.46037 46.0529 6.87869 46.7413C7.29099 47.4329 7.87652 48.005 8.57747 48.4011C9.27843 48.7972 10.0706 49.0036 10.8757 49H45.1244C46.7764 49 48.272 48.1553 49.1237 46.7413C49.5413 46.0527 49.7726 45.2671 49.7947 44.462C49.8168 43.6569 49.629 42.8599 49.2497 42.1493L32.1254 9.79999ZM10.8757 44.3333L28 11.9863L45.136 44.3333H10.8757Z" fill="#ED254E"/>
</svg>
