<svg width="160" height="36" viewBox="0 0 160 36" fill="none" xmlns="http://www.w3.org/2000/svg">
<path d="M65.34 17.68C66.1667 17.9867 66.8067 18.4333 67.26 19.02C67.7133 19.6067 67.94 20.3133 67.94 21.14C67.94 22.3667 67.4333 23.32 66.42 24C65.4067 24.6667 63.94 25 62.02 25H54.14V11H61.62C63.4867 11 64.8933 11.3333 65.84 12C66.8 12.6667 67.28 13.5533 67.28 14.66C67.28 15.3133 67.1133 15.9 66.78 16.42C66.46 16.94 65.98 17.36 65.34 17.68ZM58.78 14.3V16.38H60.98C62.0067 16.38 62.52 16.0333 62.52 15.34C62.52 14.6467 62.0067 14.3 60.98 14.3H58.78ZM61.62 21.7C62.66 21.7 63.18 21.3333 63.18 20.6C63.18 19.8667 62.66 19.5 61.62 19.5H58.78V21.7H61.62ZM81.1088 19.52C81.1088 19.5867 81.0888 19.94 81.0488 20.58H73.4488C73.6088 20.9933 73.8754 21.3133 74.2488 21.54C74.6221 21.7533 75.0888 21.86 75.6488 21.86C76.1288 21.86 76.5288 21.8 76.8488 21.68C77.1821 21.56 77.5421 21.3533 77.9288 21.06L80.2888 23.44C79.2221 24.6133 77.6288 25.2 75.5088 25.2C74.1888 25.2 73.0288 24.96 72.0288 24.48C71.0288 23.9867 70.2554 23.3067 69.7088 22.44C69.1621 21.5733 68.8888 20.6 68.8888 19.52C68.8888 18.4267 69.1554 17.4533 69.6888 16.6C70.2354 15.7333 70.9754 15.06 71.9088 14.58C72.8554 14.1 73.9154 13.86 75.0888 13.86C76.1954 13.86 77.2021 14.08 78.1088 14.52C79.0288 14.96 79.7554 15.6067 80.2888 16.46C80.8354 17.3133 81.1088 18.3333 81.1088 19.52ZM75.1288 16.94C74.6621 16.94 74.2754 17.0667 73.9688 17.32C73.6621 17.5733 73.4621 17.9333 73.3688 18.4H76.8888C76.7954 17.9467 76.5954 17.5933 76.2888 17.34C75.9821 17.0733 75.5954 16.94 75.1288 16.94ZM90.5952 24.62C89.9152 25.0067 88.9885 25.2 87.8152 25.2C86.2818 25.2 85.1018 24.8333 84.2752 24.1C83.4485 23.3533 83.0352 22.24 83.0352 20.76V17.96H81.5352V14.66H83.0352V11.6H87.5552V14.66H89.7952V17.96H87.5552V20.72C87.5552 21.0533 87.6418 21.3133 87.8152 21.5C87.9885 21.6867 88.2152 21.78 88.4952 21.78C88.8818 21.78 89.2218 21.68 89.5152 21.48L90.5952 24.62ZM106.834 11L100.914 25H96.2744L90.3544 11H95.4344L98.7744 19.18L102.194 11H106.834ZM112.143 25.2C110.93 25.2 109.837 24.96 108.863 24.48C107.903 23.9867 107.15 23.3133 106.603 22.46C106.057 21.5933 105.783 20.6133 105.783 19.52C105.783 18.4267 106.057 17.4533 106.603 16.6C107.15 15.7333 107.903 15.06 108.863 14.58C109.837 14.1 110.93 13.86 112.143 13.86C113.37 13.86 114.463 14.1 115.423 14.58C116.397 15.06 117.15 15.7333 117.683 16.6C118.23 17.4533 118.503 18.4267 118.503 19.52C118.503 20.6133 118.23 21.5933 117.683 22.46C117.15 23.3133 116.397 23.9867 115.423 24.48C114.463 24.96 113.37 25.2 112.143 25.2ZM112.143 21.68C112.663 21.68 113.09 21.4933 113.423 21.12C113.757 20.7333 113.923 20.2 113.923 19.52C113.923 18.84 113.757 18.3133 113.423 17.94C113.09 17.5667 112.663 17.38 112.143 17.38C111.623 17.38 111.197 17.5667 110.863 17.94C110.53 18.3133 110.363 18.84 110.363 19.52C110.363 20.2 110.53 20.7333 110.863 21.12C111.197 21.4933 111.623 21.68 112.143 21.68ZM131.878 14.06V25H127.578V23.96C127.178 24.3733 126.711 24.6867 126.178 24.9C125.645 25.1 125.078 25.2 124.478 25.2C123.091 25.2 121.978 24.78 121.138 23.94C120.298 23.0867 119.878 21.8067 119.878 20.1V14.06H124.398V19.32C124.398 20.0667 124.518 20.6 124.758 20.92C124.998 21.24 125.351 21.4 125.818 21.4C126.258 21.4 126.625 21.2267 126.918 20.88C127.211 20.52 127.358 19.96 127.358 19.2V14.06H131.878ZM139.763 25.2C138.523 25.2 137.409 24.96 136.423 24.48C135.449 24 134.683 23.3267 134.123 22.46C133.576 21.5933 133.303 20.6133 133.303 19.52C133.303 18.4267 133.576 17.4533 134.123 16.6C134.683 15.7333 135.449 15.06 136.423 14.58C137.409 14.1 138.523 13.86 139.763 13.86C141.096 13.86 142.236 14.1467 143.183 14.72C144.129 15.2933 144.783 16.0867 145.143 17.1L141.643 18.82C141.216 17.86 140.583 17.38 139.743 17.38C139.209 17.38 138.763 17.5667 138.403 17.94C138.056 18.3133 137.883 18.84 137.883 19.52C137.883 20.2133 138.056 20.7467 138.403 21.12C138.763 21.4933 139.209 21.68 139.743 21.68C140.583 21.68 141.216 21.2 141.643 20.24L145.143 21.96C144.783 22.9733 144.129 23.7667 143.183 24.34C142.236 24.9133 141.096 25.2 139.763 25.2ZM153.788 13.86C155.134 13.86 156.214 14.2667 157.028 15.08C157.854 15.8933 158.268 17.12 158.268 18.76V25H153.748V19.54C153.748 18.2867 153.301 17.66 152.408 17.66C151.901 17.66 151.488 17.84 151.168 18.2C150.861 18.5467 150.708 19.1 150.708 19.86V25H146.188V10.16H150.708V14.94C151.548 14.22 152.574 13.86 153.788 13.86Z" fill="#09B8FF"/>
<g clip-path="url(#clip0)">
<path d="M36.0002 18.1103C36.0002 8.1068 27.9407 -0.00219727 18.0002 -0.00219727C8.05517 5.27347e-05 -0.0043335 8.1068 -0.0043335 18.1126C-0.0043335 27.1508 6.57917 34.6433 15.1832 36.0023V23.3461H10.6157V18.1126H15.1877V14.1188C15.1877 9.58055 17.8764 7.07405 21.9872 7.07405C23.9582 7.07405 26.0169 7.4273 26.0169 7.4273V11.8823H23.7467C21.5124 11.8823 20.8149 13.2796 20.8149 14.7128V18.1103H25.8054L25.0089 23.3438H20.8127V36.0001C29.4167 34.6411 36.0002 27.1486 36.0002 18.1103Z" fill="#09B8FF"/>
</g>
<defs>
<clipPath id="clip0">
<rect width="36" height="36" fill="white"/>
</clipPath>
</defs>
</svg>
