<svg width="56" height="56" viewBox="0 0 56 56" fill="none" xmlns="http://www.w3.org/2000/svg">
<path opacity="0.5" d="M28 4.66666C23.3851 4.66666 18.8739 6.03513 15.0367 8.59903C11.1996 11.1629 8.20889 14.8071 6.44284 19.0707C4.6768 23.3343 4.21472 28.0259 5.11504 32.5521C6.01536 37.0783 8.23765 41.2359 11.5009 44.4991C14.7641 47.7624 18.9217 49.9847 23.4479 50.885C27.9741 51.7853 32.6657 51.3232 36.9293 49.5572C41.1929 47.7911 44.8371 44.8004 47.401 40.9633C49.9649 37.1261 51.3334 32.6149 51.3334 28C51.3334 24.9358 50.7298 21.9016 49.5572 19.0707C48.3846 16.2398 46.6659 13.6675 44.4992 11.5008C42.3325 9.33413 39.7602 7.61541 36.9293 6.4428C34.0984 5.27019 31.0642 4.66666 28 4.66666V4.66666ZM28 46.6667C24.3081 46.6667 20.6991 45.5719 17.6294 43.5208C14.5597 41.4696 12.1671 38.5543 10.7543 35.1434C9.34144 31.7325 8.97178 27.9793 9.69204 24.3583C10.4123 20.7373 12.1901 17.4112 14.8007 14.8007C17.4113 12.1901 20.7374 10.4123 24.3583 9.692C27.9793 8.97174 31.7326 9.3414 35.1435 10.7542C38.5543 12.1671 41.4697 14.5596 43.5208 17.6293C45.5719 20.6991 46.6667 24.3081 46.6667 28C46.6667 32.9507 44.7 37.6986 41.1994 41.1993C37.6987 44.7 32.9507 46.6667 28 46.6667V46.6667Z" fill="#2F97C1"/>
<path d="M46.6667 28H51.3333C51.3333 24.9358 50.7298 21.9016 49.5572 19.0707C48.3846 16.2398 46.6659 13.6675 44.4992 11.5008C42.3325 9.33413 39.7602 7.61541 36.9293 6.4428C34.0984 5.27019 31.0642 4.66666 28 4.66666V9.33332C32.9507 9.33332 37.6986 11.3 41.1993 14.8007C44.7 18.3013 46.6667 23.0493 46.6667 28Z" fill="#2F97C1"/>
</svg>
