<svg width="72" height="72" viewBox="0 0 72 72" fill="none" xmlns="http://www.w3.org/2000/svg">
<path fill-rule="evenodd" clip-rule="evenodd" d="M36 7.20001C36.9548 7.20001 37.8705 7.5793 38.5456 8.25443C39.2207 8.92956 39.6 9.84523 39.6 10.8V14.4C39.6 15.3548 39.2207 16.2705 38.5456 16.9456C37.8705 17.6207 36.9548 18 36 18C35.0452 18 34.1296 17.6207 33.4544 16.9456C32.7793 16.2705 32.4 15.3548 32.4 14.4V10.8C32.4 9.84523 32.7793 8.92956 33.4544 8.25443C34.1296 7.5793 35.0452 7.20001 36 7.20001V7.20001ZM50.4 36C50.4 39.8191 48.8829 43.4818 46.1823 46.1823C43.4818 48.8829 39.8191 50.4 36 50.4C32.1809 50.4 28.5182 48.8829 25.8177 46.1823C23.1171 43.4818 21.6 39.8191 21.6 36C21.6 32.1809 23.1171 28.5182 25.8177 25.8177C28.5182 23.1171 32.1809 21.6 36 21.6C39.8191 21.6 43.4818 23.1171 46.1823 25.8177C48.8829 28.5182 50.4 32.1809 50.4 36V36ZM48.7296 53.82L51.2748 56.3652C51.9538 57.021 52.8631 57.3838 53.8071 57.3756C54.751 57.3674 55.6539 56.9888 56.3214 56.3214C56.9888 55.6539 57.3674 54.751 57.3756 53.8071C57.3838 52.8631 57.021 51.9538 56.3652 51.2748L53.82 48.7296C53.141 48.0738 52.2317 47.711 51.2878 47.7192C50.3439 47.7274 49.4409 48.106 48.7735 48.7735C48.106 49.4409 47.7274 50.3439 47.7192 51.2878C47.711 52.2317 48.0738 53.141 48.7296 53.82V53.82ZM56.3616 15.6348C57.0365 16.3099 57.4156 17.2254 57.4156 18.18C57.4156 19.1346 57.0365 20.0501 56.3616 20.7252L53.82 23.2704C53.4879 23.6142 53.0907 23.8885 52.6515 24.0772C52.2122 24.2658 51.7399 24.3652 51.2619 24.3693C50.7838 24.3735 50.3098 24.2824 49.8674 24.1014C49.4249 23.9204 49.023 23.653 48.685 23.315C48.347 22.977 48.0797 22.5751 47.8987 22.1326C47.7176 21.6902 47.6266 21.2162 47.6307 20.7382C47.6349 20.2602 47.7342 19.7878 47.9228 19.3486C48.1115 18.9093 48.3858 18.5121 48.7296 18.18L51.2748 15.6348C51.9499 14.9599 52.8654 14.5808 53.82 14.5808C54.7746 14.5808 55.6901 14.9599 56.3652 15.6348H56.3616ZM61.2 39.6C62.1548 39.6 63.0705 39.2207 63.7456 38.5456C64.4207 37.8705 64.8 36.9548 64.8 36C64.8 35.0452 64.4207 34.1296 63.7456 33.4544C63.0705 32.7793 62.1548 32.4 61.2 32.4H57.6C56.6452 32.4 55.7296 32.7793 55.0544 33.4544C54.3793 34.1296 54 35.0452 54 36C54 36.9548 54.3793 37.8705 55.0544 38.5456C55.7296 39.2207 56.6452 39.6 57.6 39.6H61.2ZM36 54C36.9548 54 37.8705 54.3793 38.5456 55.0544C39.2207 55.7296 39.6 56.6452 39.6 57.6V61.2C39.6 62.1548 39.2207 63.0705 38.5456 63.7456C37.8705 64.4207 36.9548 64.8 36 64.8C35.0452 64.8 34.1296 64.4207 33.4544 63.7456C32.7793 63.0705 32.4 62.1548 32.4 61.2V57.6C32.4 56.6452 32.7793 55.7296 33.4544 55.0544C34.1296 54.3793 35.0452 54 36 54V54ZM18.18 23.2704C18.5143 23.6049 18.9111 23.8703 19.3479 24.0514C19.7847 24.2325 20.2529 24.3258 20.7257 24.3259C21.1986 24.3261 21.6669 24.2331 22.1038 24.0523C22.5407 23.8715 22.9377 23.6065 23.2722 23.2722C23.6067 22.938 23.8721 22.5411 24.0532 22.1043C24.2343 21.6675 24.3276 21.1993 24.3277 20.7265C24.3279 20.2536 24.2349 19.7854 24.0541 19.3484C23.8733 18.9115 23.6083 18.5145 23.274 18.18L20.7252 15.6348C20.0462 14.979 19.1369 14.6162 18.193 14.6244C17.2491 14.6326 16.3461 15.0112 15.6787 15.6787C15.0112 16.3461 14.6326 17.2491 14.6244 18.193C14.6162 19.1369 14.979 20.0462 15.6348 20.7252L18.18 23.2704V23.2704ZM23.2704 53.82L20.7252 56.3652C20.0462 57.021 19.1369 57.3838 18.193 57.3756C17.2491 57.3674 16.3461 56.9888 15.6787 56.3214C15.0112 55.6539 14.6326 54.751 14.6244 53.8071C14.6162 52.8631 14.979 51.9538 15.6348 51.2748L18.18 48.7296C18.859 48.0738 19.7683 47.711 20.7123 47.7192C21.6562 47.7274 22.5591 48.106 23.2266 48.7735C23.894 49.4409 24.2726 50.3439 24.2808 51.2878C24.289 52.2317 23.9262 53.141 23.2704 53.82V53.82ZM14.4 39.6C15.3548 39.6 16.2705 39.2207 16.9456 38.5456C17.6207 37.8705 18 36.9548 18 36C18 35.0452 17.6207 34.1296 16.9456 33.4544C16.2705 32.7793 15.3548 32.4 14.4 32.4H10.8C9.84523 32.4 8.92956 32.7793 8.25443 33.4544C7.5793 34.1296 7.20001 35.0452 7.20001 36C7.20001 36.9548 7.5793 37.8705 8.25443 38.5456C8.92956 39.2207 9.84523 39.6 10.8 39.6H14.4Z" fill="#FFC700"/>
</svg>
